<?xml version="1.0" encoding="UTF-8"?><svg xmlns="http://www.w3.org/2000/svg" xmlns:xlink="http://www.w3.org/1999/xlink" fill-opacity="1" color-rendering="auto" color-interpolation="auto" text-rendering="auto" stroke="black" stroke-linecap="square" width="497" stroke-miterlimit="10" shape-rendering="auto" stroke-opacity="1" fill="black" stroke-dasharray="none" font-weight="normal" stroke-width="1" height="677" font-family="'Dialog'" font-style="normal" stroke-linejoin="miter" font-size="12px" stroke-dashoffset="0" image-rendering="auto">
  <!--Generated by ySVG 2.5-->
  <defs id="genericDefs"/>
  <g>
    <defs id="defs1">
      <clipPath clipPathUnits="userSpaceOnUse" id="clipPath1">
        <path d="M0 0 L497 0 L497 677 L0 677 L0 0 Z"/>
      </clipPath>
      <clipPath clipPathUnits="userSpaceOnUse" id="clipPath2">
        <path d="M280 164 L777 164 L777 841 L280 841 L280 164 Z"/>
      </clipPath>
    </defs>
    <g fill="white" text-rendering="geometricPrecision" shape-rendering="geometricPrecision" transform="translate(-280,-164)" stroke="white">
      <rect x="280" width="497" height="677" y="164" clip-path="url(#clipPath2)" stroke="none"/>
    </g>
    <g fill="white" text-rendering="geometricPrecision" shape-rendering="geometricPrecision" transform="matrix(1,0,0,1,-280,-164)" stroke="white">
      <rect x="437" y="180" clip-path="url(#clipPath2)" width="120" rx="60" ry="60" height="120" stroke="none"/>
    </g>
    <g text-rendering="geometricPrecision" stroke-miterlimit="1.45" shape-rendering="geometricPrecision" transform="matrix(1,0,0,1,-280,-164)" stroke-linecap="butt">
      <rect x="437" y="180" clip-path="url(#clipPath2)" fill="none" width="120" rx="60" ry="60" height="120"/>
      <text x="446.8057" xml:space="preserve" y="244.1543" clip-path="url(#clipPath2)" font-family="sans-serif" stroke="none">AUTHORIZATION</text>
    </g>
    <g fill="white" text-rendering="geometricPrecision" shape-rendering="geometricPrecision" transform="matrix(1,0,0,1,-280,-164)" stroke="white">
      <rect x="437" y="443" clip-path="url(#clipPath2)" width="120" rx="60" ry="60" height="120" stroke="none"/>
    </g>
    <g text-rendering="geometricPrecision" stroke-miterlimit="1.45" shape-rendering="geometricPrecision" transform="matrix(1,0,0,1,-280,-164)" stroke-linecap="butt">
      <rect x="437" y="443" clip-path="url(#clipPath2)" fill="none" width="120" rx="60" ry="60" height="120"/>
      <text x="453.8252" xml:space="preserve" y="507.1543" clip-path="url(#clipPath2)" font-family="sans-serif" stroke="none">TRANSACTION</text>
    </g>
    <g fill="white" text-rendering="geometricPrecision" shape-rendering="geometricPrecision" transform="matrix(1,0,0,1,-280,-164)" stroke="white">
      <rect x="437" y="706" clip-path="url(#clipPath2)" width="120" rx="60" ry="60" height="120" stroke="none"/>
    </g>
    <g text-rendering="geometricPrecision" stroke-miterlimit="1.45" shape-rendering="geometricPrecision" transform="matrix(1,0,0,1,-280,-164)" stroke-linecap="butt">
      <rect x="437" y="706" clip-path="url(#clipPath2)" fill="none" width="120" rx="60" ry="60" height="120"/>
      <text x="472.8096" xml:space="preserve" y="770.1543" clip-path="url(#clipPath2)" font-family="sans-serif" stroke="none">UPDATE</text>
    </g>
    <g text-rendering="geometricPrecision" stroke-miterlimit="1.45" shape-rendering="geometricPrecision" transform="matrix(1,0,0,1,-280,-164)" stroke-linecap="butt">
      <path fill="none" d="M467.3349 187.8468 L465.1809 186.5382 L459.8661 183.978 L454.2801 181.9334 L448.4533 180.4352 L442.4164 179.5139 L436.2 179.2 L429.9836 179.5139 L423.9467 180.4352 L418.1199 181.9334 L412.5339 183.978 L407.2191 186.5382 L402.2061 189.5837 L397.5255 193.0838 L393.2079 197.0079 L389.2838 201.3255 L385.7837 206.0061 L382.7382 211.0191 L380.1779 216.3339 L378.1335 221.9199 L376.6352 227.7467 L375.7139 233.7835 L375.4 240 L375.7139 246.2164 L376.6352 252.2533 L378.1335 258.08 L380.1779 263.6661 L382.7382 268.9809 L385.7837 273.9939 L389.2838 278.6744 L393.2079 282.9921 L397.5255 286.9162 L402.2061 290.4163 L407.2191 293.4618 L412.5339 296.022 L418.1199 298.0666 L423.9467 299.5648 L429.9836 300.4861 L436.2 300.8 L442.4164 300.4861 L448.4533 299.5648 L454.2801 298.0666 L457.4201 296.9173 L457.5089 296.8713" clip-path="url(#clipPath2)"/>
    </g>
    <g text-rendering="geometricPrecision" stroke-miterlimit="1.45" shape-rendering="geometricPrecision" transform="matrix(1,0,0,1,-280,-164)" stroke-linecap="butt">
      <path d="M467.425 292.1099 L454.0103 291.8954 L459.2046 302.7129 Z" stroke="none" clip-path="url(#clipPath2)"/>
      <text x="315.0621" xml:space="preserve" y="236.6931" clip-path="url(#clipPath2)" font-family="sans-serif" stroke="none">WRONG</text>
      <text x="306.5455" xml:space="preserve" y="250.6619" clip-path="url(#clipPath2)" font-family="sans-serif" stroke="none">COMMAND</text>
      <path fill="none" d="M497 300.0033 L497 431.9832" clip-path="url(#clipPath2)"/>
      <path d="M497 442.9832 L503 430.9832 L491 430.9832 Z" clip-path="url(#clipPath2)" stroke="none"/>
      <text x="501.081" xml:space="preserve" y="375.6543" clip-path="url(#clipPath2)" font-family="sans-serif" stroke="none">USER,PASS,APOP</text>
      <path fill="none" d="M524.2566 556.4756 L526.209 557.9355 L531.6713 561.254 L537.4625 564.0438 L543.5493 566.2715 L549.8983 567.9041 L556.4763 568.908 L563.25 569.25 L570.0237 568.908 L576.6017 567.9041 L582.9507 566.2715 L589.0375 564.0438 L594.8287 561.254 L600.291 557.9355 L605.3912 554.1217 L610.0958 549.8458 L614.3717 545.1412 L618.1855 540.041 L621.504 534.5787 L624.2938 528.7875 L626.5215 522.7007 L628.1541 516.3517 L629.158 509.7737 L629.5 503 L629.158 496.2263 L628.1541 489.6483 L626.5215 483.2993 L624.2938 477.2125 L621.504 471.4213 L618.1855 465.959 L614.3717 460.8589 L610.0958 456.1542 L605.3912 451.8783 L600.291 448.0645 L594.8287 444.746 L589.0375 441.9563 L582.9507 439.7285 L576.6017 438.096 L570.0237 437.092 L563.25 436.75 L556.4763 437.092 L549.8983 438.096 L543.5493 439.7285 L537.4625 441.9563 L533.6464 443.7946 L533.5624 443.8487" clip-path="url(#clipPath2)"/>
      <path d="M524.1713 449.5764 L537.5403 448.4504 L531.2919 438.2056 Z" clip-path="url(#clipPath2)" stroke="none"/>
      <text x="641.672" xml:space="preserve" y="498.9679" clip-path="url(#clipPath2)" font-family="sans-serif" stroke="none">NOOP,RSET,STAT,</text>
      <text x="631.8517" xml:space="preserve" y="512.9366" clip-path="url(#clipPath2)" font-family="sans-serif" stroke="none">LIST,UIDL,RETR,DELE</text>
      <path fill="none" d="M469.3127 449.7268 L468.254 448.9351 L462.8782 445.6693 L457.1788 442.9237 L451.1885 440.7313 L444.9401 439.1246 L438.4663 438.1366 L431.8 437.8 L425.1337 438.1366 L418.6599 439.1246 L412.4115 440.7312 L406.4212 442.9237 L400.7218 445.6693 L395.3461 448.9351 L390.3268 452.6885 L385.6967 456.8966 L381.4885 461.5267 L377.7351 466.546 L374.4693 471.9218 L371.7238 477.6212 L369.5313 483.6115 L367.9247 489.8599 L366.9366 496.3336 L366.6 503 L366.9366 509.6663 L367.9246 516.14 L369.5312 522.3884 L371.7237 528.3787 L374.4693 534.0782 L377.7351 539.4539 L381.4885 544.4732 L385.6966 549.1033 L390.3268 553.3115 L395.346 557.0648 L400.7218 560.3307 L406.4212 563.0762 L412.4115 565.2687 L418.6599 566.8754 L425.1337 567.8633 L431.8 568.2 L438.4663 567.8633 L444.9401 566.8754 L451.1885 565.2687 L457.1788 563.0762 L459.8077 561.8098 L459.8923 561.7565" clip-path="url(#clipPath2)"/>
      <path d="M469.3991 556.2228 L456.0097 557.074 L462.0464 567.445 Z" clip-path="url(#clipPath2)" stroke="none"/>
      <text x="305.8381" xml:space="preserve" y="501.3699" clip-path="url(#clipPath2)" font-family="sans-serif" stroke="none">WRONG</text>
      <text x="297.3215" xml:space="preserve" y="515.3387" clip-path="url(#clipPath2)" font-family="sans-serif" stroke="none">COMMAND</text>
      <path fill="none" d="M497 563.0033 L497 694.9832" clip-path="url(#clipPath2)"/>
      <path d="M497 705.9832 L503 693.9832 L491 693.9832 Z" clip-path="url(#clipPath2)" stroke="none"/>
      <text x="504.1297" xml:space="preserve" y="638.6543" clip-path="url(#clipPath2)" font-family="sans-serif" stroke="none">QUIT</text>
    </g>
  </g>
</svg>
